<svg width="154" height="48" viewBox="0 0 154 48" fill="none" xmlns="http://www.w3.org/2000/svg">
<path d="M54.9792 36.8241C54.9792 36.2536 55.1349 35.7348 55.498 35.2161C55.861 34.6974 56.276 34.4381 56.7947 34.4381C57.1578 34.4381 57.6246 34.6974 58.2471 35.2161C58.8695 35.7348 59.8032 36.2536 60.9962 36.7723C62.1893 37.291 63.5898 37.5503 65.1977 37.5503C67.3244 37.5503 68.8806 37.1872 69.8142 36.4092C70.7479 35.6311 71.2666 34.6456 71.2666 33.5044C71.2666 32.1039 70.7479 30.9628 69.6586 30.1328C68.5693 29.3029 67.2726 28.6805 65.7683 28.2136C64.2122 27.7987 62.708 27.3318 61.1518 26.8131C59.5957 26.2944 58.299 25.4126 57.2616 24.2196C56.2241 23.0266 55.6536 21.4186 55.6536 19.4475C55.6536 17.0615 56.5354 14.9866 58.2471 13.223C59.9588 11.4594 62.6042 10.5776 66.1314 10.5776C68.3618 10.5776 70.4367 10.9407 72.304 11.615C74.1714 12.2894 75.105 13.0674 75.105 13.9492C75.105 14.4679 74.8975 15.0385 74.4826 15.661C74.0676 16.2834 73.6008 16.5946 72.9783 16.5946C72.8227 16.5946 71.9928 16.2834 70.5404 15.661C69.088 15.0385 67.6357 14.7273 66.1833 14.7273C64.2122 14.7273 62.7598 15.1941 61.8262 16.1278C60.8925 17.0615 60.3738 18.0989 60.3738 19.24C60.3738 20.433 60.8925 21.3667 61.9818 22.0929C63.0192 22.7672 64.3678 23.3378 65.9239 23.7009C67.48 24.064 69.0362 24.5827 70.5404 25.1014C72.0965 25.672 73.3933 26.6056 74.4307 27.9543C75.4681 29.3029 76.0387 31.0665 76.0387 33.1932C76.0387 35.7867 75.105 37.8615 73.2377 39.3658C71.3703 40.87 68.7249 41.6481 65.4052 41.6481C62.5005 41.6481 60.0626 41.1294 57.9877 40.092C55.9648 39.0546 54.9792 37.9653 54.9792 36.8241Z" fill="#384967"/>
<path d="M80.1364 31.5333V3.41947C80.1364 2.90077 80.3957 2.4858 80.9663 2.12271C81.5369 1.75962 82.1074 1.604 82.7299 1.604C83.4042 1.604 84.0266 1.81149 84.5972 2.12271C85.1678 2.4858 85.4271 2.90077 85.4271 3.41947V10.8888H93.4671C93.9339 10.8888 94.297 11.0963 94.6082 11.5113C94.9195 11.9262 95.0751 12.4449 95.0751 12.9637C95.0751 13.5342 94.9195 14.0011 94.6082 14.416C94.297 14.831 93.9339 15.0385 93.4671 15.0385H85.4271V31.3777C85.4271 33.1932 85.8421 34.4899 86.6202 35.2161C87.3982 35.9423 88.7987 36.3054 90.7179 36.3054H92.689C93.4152 36.3054 93.9858 36.5129 94.4008 36.9797C94.8157 37.4466 95.0232 38.0171 95.0232 38.6914C95.0232 39.3658 94.8157 39.9363 94.4008 40.4032C93.9858 40.87 93.4152 41.1294 92.7409 41.1294H90.7698C83.6635 41.1812 80.1364 37.9653 80.1364 31.5333Z" fill="#384967"/>
<path d="M96.9424 29.303V22.7673C96.9424 19.4995 98.1873 16.6466 100.677 14.2087C103.167 11.7708 106.123 10.5259 109.495 10.5259C112.867 10.5259 115.875 11.7189 118.365 14.1568C120.855 16.5947 122.151 19.4476 122.151 22.7673V29.303C122.151 32.519 120.907 35.4237 118.365 37.9135C115.823 40.4033 112.867 41.7001 109.547 41.7001C106.175 41.7001 103.271 40.4552 100.729 37.9654C98.1873 35.4237 96.9424 32.5709 96.9424 29.303ZM102.233 29.2511C102.233 31.2222 102.959 32.9858 104.412 34.5419C105.864 36.0462 107.576 36.8242 109.495 36.8242C111.518 36.8242 113.23 36.0462 114.682 34.4901C116.134 32.934 116.861 31.2222 116.861 29.2511V22.8192C116.861 20.9 116.134 19.1883 114.682 17.684C113.23 16.1798 111.518 15.4017 109.495 15.4017C107.472 15.4017 105.76 16.1798 104.36 17.684C102.907 19.1883 102.233 20.9 102.233 22.8192V29.2511Z" fill="#384967"/>
<path d="M127.131 39.2622V12.7563C127.131 12.1857 127.39 11.7708 127.857 11.4077C128.324 11.0446 128.998 10.889 129.725 10.889C130.399 10.889 130.97 11.0446 131.436 11.4077C131.903 11.7708 132.163 12.1857 132.163 12.7563V15.8167C132.941 14.3643 134.03 13.1194 135.534 12.082C137.038 11.0446 138.698 10.5259 140.514 10.5259H142.692C143.263 10.5259 143.73 10.7852 144.145 11.2521C144.56 11.7708 144.767 12.3413 144.767 12.9638C144.767 13.5862 144.56 14.1568 144.145 14.6237C143.73 15.0905 143.263 15.3498 142.692 15.3498H140.514C138.335 15.3498 136.468 16.2316 134.86 17.9434C133.252 19.707 132.422 21.9374 132.422 24.6865V39.2103C132.422 39.6771 132.163 40.0921 131.644 40.5071C131.125 40.922 130.503 41.1295 129.777 41.1295C129.05 41.1295 128.428 40.922 127.909 40.5589C127.339 40.1958 127.131 39.729 127.131 39.2622Z" fill="#384967"/>
<path d="M148.45 6.68743C147.776 6.06498 147.464 5.3388 147.464 4.56074C147.464 3.73081 147.776 3.05649 148.398 2.43405C149.02 1.86347 149.799 1.55225 150.784 1.55225C151.666 1.55225 152.444 1.86347 153.066 2.43405C153.689 3.00462 154 3.73081 154 4.56074C154 5.39067 153.689 6.06498 153.066 6.68743C152.444 7.30988 151.666 7.6211 150.784 7.6211C149.902 7.6211 149.124 7.30988 148.45 6.68743ZM148.139 39.2621V12.7563C148.139 12.1857 148.398 11.7707 148.917 11.4076C149.435 11.0446 150.058 10.8889 150.784 10.8889C151.562 10.8889 152.185 11.0446 152.703 11.4076C153.222 11.7707 153.481 12.1857 153.481 12.7563V39.2621C153.481 39.729 153.222 40.1439 152.703 40.5589C152.185 40.9739 151.562 41.1813 150.836 41.1813C150.11 41.1813 149.487 40.9739 148.969 40.6108C148.398 40.1958 148.139 39.729 148.139 39.2621Z" fill="#384967"/>
<path d="M28.6289 3.62702C29.7701 6.58364 28.3177 9.95522 25.3611 11.0964L8.45127 17.7877C5.49465 18.9288 2.17493 17.4765 0.981911 14.5198C-0.211111 11.5632 1.29313 8.19163 4.24976 7.05047L21.1596 0.411043C24.1162 -0.781979 27.4878 0.722266 28.6289 3.62702Z" fill="#00F5EB"/>
<path d="M12.5491 43.9305C11.4079 40.9738 12.8603 37.6023 15.8169 36.4611L32.7267 29.8217C35.6834 28.6805 39.055 30.1329 40.1961 33.0895C41.3373 36.0461 39.8849 39.4177 36.9283 40.5589L20.0185 47.1464C17.1137 48.3395 13.7421 46.8352 12.5491 43.9305Z" fill="#FF8CD9"/>
<path d="M0.981839 14.5199C2.12299 17.4765 5.49458 18.9289 8.4512 17.7877L9.8517 17.269C9.64422 16.9059 9.43674 16.4909 9.28113 16.076C7.20631 10.7852 9.79983 4.87194 15.0388 2.79712L4.24968 7.0505C1.29306 8.19166 -0.159313 11.5632 0.981839 14.5199Z" fill="#78ACF8"/>
<path d="M31.9487 31.5335C34.0235 36.7724 31.43 42.7376 26.191 44.7605L36.9801 40.5071C39.9367 39.366 41.3891 35.9944 40.248 33.0378C39.1068 30.0811 35.7352 28.6288 32.7786 29.7699L31.3781 30.2886C31.5856 30.7036 31.7931 31.1186 31.9487 31.5335Z" fill="#BA6BEB"/>
<path d="M40.0923 27.5393C38.6918 24.6864 37.1876 23.2859 34.6978 21.7817C33.2973 20.9517 27.5915 19.1363 21.5745 17.3208C14.572 15.1422 6.68768 12.6524 5.18343 11.9263C2.33055 10.6295 2.0712 8.91776 3.00487 7.77661C-0.262974 9.79956 -0.83355 16.0759 1.13753 20.1218C2.53804 22.9747 4.04228 24.3752 6.53207 25.8794C7.93257 26.7094 13.6383 28.5248 19.6553 30.3403C26.6578 32.5189 34.5422 35.0605 36.0464 35.7348C38.8993 37.0316 39.1586 38.7433 38.225 39.8845C41.4928 37.8615 42.0634 31.5852 40.0923 27.5393Z" fill="#A9FF95"/>
</svg>
